<svg xmlns="http://www.w3.org/2000/svg" xmlns:xlink="http://www.w3.org/1999/xlink" viewBox="0 0 403.07 387.75"><defs><style>.cls-1{isolation:isolate;}.cls-2{fill:#fdd700;}.cls-3{fill:#df7f3a;}.cls-4{fill:#fdd400;}.cls-5{fill:#ffe40c;}.cls-6{fill:#e9f2f9;}.cls-7{fill:#3a89c9;}.cls-8{fill:#9cc4e4;}.cls-9{fill:#f26c4f;}.cls-10{fill:#fff;}.cls-11{opacity:0.82;}.cls-12,.cls-16{fill:none;}.cls-13{opacity:0.15;fill:url(#radial-gradient);}.cls-13,.cls-14,.cls-15,.cls-16{mix-blend-mode:screen;}.cls-14{opacity:0.5;fill:url(#radial-gradient-2);}.cls-15{fill:url(#radial-gradient-3);}.cls-16{stroke:#fff;stroke-miterlimit:10;stroke-width:2px;opacity:0.03;}.cls-17{fill:#7fc487;}.cls-18{fill:#0caf8a;}.cls-19{fill:#2a1b21;}.cls-20{fill:#7fc687;}.cls-21{fill:#edc759;}.cls-22{fill:#e8ec93;}.cls-23{font-size:17px;fill:#888;font-family:MicrosoftJhengHeiBold, Microsoft JhengHei;font-weight:700;}.cls-24{fill:#fb8b01;}.cls-25{fill:#00e5aa;}.cls-26{fill:#ffb116;}</style><radialGradient id="radial-gradient" cx="-94.06" cy="-1085.86" r="1.79" gradientTransform="matrix(0, -2.7, -3.74, 0, -3781.53, -205.86)" gradientUnits="userSpaceOnUse"><stop offset="0" stop-color="#200000"/><stop offset="0.73" stop-color="#9c4122"/><stop offset="1" stop-color="#200000"/></radialGradient><radialGradient id="radial-gradient-2" cx="-94.06" cy="-1085.86" r="0.89" gradientTransform="matrix(0, -2.7, -3.74, 0, -3781.53, -205.86)" gradientUnits="userSpaceOnUse"><stop offset="0.15" stop-color="#fff"/><stop offset="0.21" stop-color="#e5d2d2"/><stop offset="0.29" stop-color="#c59b9c"/><stop offset="0.36" stop-color="#ae7374"/><stop offset="0.42" stop-color="#a05b5c"/><stop offset="0.45" stop-color="#9b5253"/><stop offset="0.58" stop-color="#693131"/><stop offset="0.7" stop-color="#411616"/><stop offset="0.79" stop-color="#290606"/><stop offset="0.85" stop-color="#200000"/><stop offset="0.86" stop-color="#240201"/><stop offset="0.86" stop-color="#310803"/><stop offset="0.87" stop-color="#451108"/><stop offset="0.88" stop-color="#621e0e"/><stop offset="0.89" stop-color="#883016"/><stop offset="0.9" stop-color="#b5441f"/><stop offset="0.9" stop-color="#d55326"/><stop offset="0.9" stop-color="#c64c23"/><stop offset="0.91" stop-color="#9a381a"/><stop offset="0.93" stop-color="#752712"/><stop offset="0.94" stop-color="#56190b"/><stop offset="0.95" stop-color="#3e0e06"/><stop offset="0.97" stop-color="#2d0603"/><stop offset="0.98" stop-color="#230101"/><stop offset="1" stop-color="#200000"/></radialGradient><radialGradient id="radial-gradient-3" cx="-94.06" cy="-1085.86" r="0.75" gradientTransform="matrix(0, -2.7, -3.74, 0, -3781.53, -205.86)" gradientUnits="userSpaceOnUse"><stop offset="0.15" stop-color="#fff"/><stop offset="0.28" stop-color="#c2c2c2"/><stop offset="0.43" stop-color="#888"/><stop offset="0.56" stop-color="#575757"/><stop offset="0.69" stop-color="#313131"/><stop offset="0.81" stop-color="#161616"/><stop offset="0.92" stop-color="#060606"/><stop offset="1"/></radialGradient></defs><title>簡歷小蛙大</title><g class="cls-1"><g id="圖層_2" data-name="圖層 2"><g id="圖層_1-2" data-name="圖層 1"><path class="cls-2" d="M172.8,191.28A1135.06,1135.06,0,0,1,50.53,242.94c-3.73,1.33-7.72,2.65-11.58,1.78-5-1.13-8.45-5.57-12.79-8.3C18,231.3,6.18,233.16,0,240.55c7-1,6.84,11.25,12.6,15.28,5.45,3.81,12.51-1.54,16.95-6.49,37.9,46.5,98.92,73.14,158.78,69.34,18.09-1.15,37.93-4.48,53,5.64a34.53,34.53,0,0,1,14.89,25.15,6.12,6.12,0,0,0-2.61,9c-5.22,2.66-7.07,9.62-5.51,15.26s5.77,10.16,10.19,14c4.51-4,8.86-8.4,11-14s1.58-12.6-2.77-16.73a8,8,0,0,0,4.62-5.44c-2.7,0-4.77-2.71-5-5.4s1-5.28,2.14-7.71a278.51,278.51,0,0,1,33.08-52.6c9.44-11.84,20.12-23.11,33.48-30.24S364.69,246,378.6,252a18,18,0,0,0-.85,10.05l6.38-2.36c-.87,7.36,8.95,13.39,15.12,9.3s4.05-13.35-1.31-17a116.28,116.28,0,0,0-24.69-12.87,132,132,0,0,0-57.41-8.18A125.85,125.85,0,0,0,296.52,234c-13.19,3.19-25.87,8.44-39.23,10.81s-28.13,1.45-39-6.67c-16.23-12.1-18.88-35.8-32.79-50.5,5-1.79,7-8.48,4.8-13.29s-7.6-7.6-12.88-8c1.54,4.31-1.7,8.68-4.21,12.51S169.11,188.58,172.8,191.28Z"/><path class="cls-3" d="M350.74,242.39c-3,.79-6,1.65-8.91,2.68-19.79,7-36.37,21.18-49.39,37.63s-22.82,35.16-32.54,53.75c-6.36-12.45-16.69-23.72-30.22-27.24-11.41-3-23.39-.13-35.09,1.25-28.47,3.36-57.56-2.14-84.09-13s-50.69-26.89-73-44.9A1510.76,1510.76,0,0,0,183.76,196.4c9.06,24.63,25.25,49.53,50.61,56.29,20.48,5.46,41.87-2.15,62-8.69,12.1-3.93,24.66-7.41,37.47-7.62a56.46,56.46,0,0,1,18.49,2.56c.6.2,3.73.88,3.62,1.78s-3.31,1.17-4.1,1.37Z"/><path class="cls-4" d="M135.68,234.67q-4-2.16-7.83-4.45c-.7-.41-1.61-.82-2.26-.34s-.54,1.42-.37,2.19c5.28,24.47,16.76,47.16,29.57,68.67a101.93,101.93,0,0,1,27.13-12,76.59,76.59,0,0,0,12.28,19.45,46.24,46.24,0,0,0-3.94-20.61A326,326,0,0,1,278.78,271c.61,0,2.45-.23,2.46-1.13s-2.33-1.41-3-1.66q-3.7-1.48-7.46-2.81-7.51-2.66-15.22-4.72a205.59,205.59,0,0,0-31.31-5.83q-10-1.07-20-1.16c-1.67,0-20.09.43-20.06.82a49.7,49.7,0,0,0-7.64-22.5,40.11,40.11,0,0,0-1.33,20.38A272.83,272.83,0,0,1,135.68,234.67Z"/><path class="cls-3" d="M156.77,281.61q.2.7.36,1.42c.34,1.51.67,3.22,2,4s2.83.47,4.23.08c11.56-3.21,22-9.61,33.54-12.94,11.94-3.45,24.74-3.54,36.42-7.8,3.34-1.22,2.56-3.57-.18-4.63a35.59,35.59,0,0,0-10-2.08c-7-.55-13.93.34-20.85.92-20,1.68-41,.31-58.45-9.48C145.34,262.13,153.81,271,156.77,281.61Z"/><path class="cls-5" d="M196.49,269.45l4.29-1.38c.8-.26,2.67-1.12,2.25-2.28s-3.2-1.36-4.13-1.53a35.85,35.85,0,0,0-10.5.11q-5.28.63-10.52,1.54a25.63,25.63,0,0,0-6.4,1.74,9.46,9.46,0,0,0-4.76,4.44,4.1,4.1,0,0,0-.39,2.54,3.91,3.91,0,0,0,3.51,2.72,11.45,11.45,0,0,0,4.64-.81Z"/><path class="cls-6" d="M325.29,58.13c-1.15-8.11-7.6-15.35-13.44-20.53a86.81,86.81,0,0,0-23.38-14.39,38,38,0,0,0-12.3-3.48,31.51,31.51,0,0,0-11.08,1.5,52.76,52.76,0,0,0-33.58,31c-2.37,6.1-3.54,13.06-1.13,19.14,2.58,6.52,8.75,10.88,15,14.07a85,85,0,0,0,31.08,8.95c9.16.81,18.74,0,26.87-4.26,6.15-3.26,11.13-8.37,15.4-13.87,3.51-4.53,6.72-9.74,6.76-15.47A18,18,0,0,0,325.29,58.13Z"/><path class="cls-7" d="M284.7,44.47c-1.12-2.22-3-4.5-5.45-4.5-1.77,0-3.31,1.17-4.61,2.37-.85.79-1.73,1.92-1.29,3a86.37,86.37,0,0,1,.31-28.06A44.49,44.49,0,0,1,277.1,5.34c1-2.08,2.41-4.17,4.57-5a8.32,8.32,0,0,1,3.69-.3A19,19,0,0,1,296.21,5c3.23,3,4,7.37,3.18,11.57a37.76,37.76,0,0,1-3.76,9.4C292.38,32.34,289.1,38.79,284.7,44.47Z"/><path class="cls-8" d="M309.69,86.42c.05-.71-2.78-10.15-3.1-11a75.41,75.41,0,0,0-5-11A26.53,26.53,0,0,0,285,51.78c.52-2.49,1-5.07.51-7.56s-2.43-4.87-5-5.14a6.21,6.21,0,0,0-4.15,1.28A9.69,9.69,0,0,0,272.88,51c-5.31-.28-10.51,2.06-14.54,5.54s-7,8-9.55,12.66-4.75,9.52-7.53,14l4.8,2.68L255.32,71c2.12-3.42,4.3-6.91,7.49-9.35A20.51,20.51,0,0,1,271,58a22.88,22.88,0,0,1,8.59-.26,22.21,22.21,0,0,1,7.54,2.81,23,23,0,0,1,5.4,4.39,43,43,0,0,1,5.06,7.53c2.58,4.5,4.06,9,6.64,13.5a1.81,1.81,0,0,0,.89.93,9.4,9.4,0,0,0,2,0l2.56-.44S309.69,86.45,309.69,86.42Z"/><ellipse class="cls-9" cx="279.1" cy="47.84" rx="7.3" ry="5.36" transform="matrix(0.15, -0.99, 0.99, 0.15, 189.73, 316.54)"/><path class="cls-10" d="M281.07,39.85l.32-2.08q.62-4.28,1.29-8.56c.86-5.57,1.75-11.14,2.73-16.69.43-2.4.87-4.79,1.38-7.18.26-1.21.39-3.09,1.1-4.15.24-.36.45-.53.55,0"/><g class="cls-11"><line class="cls-12" x1="279.1" y1="47.84" x2="277.06" y2="49.92"/><ellipse class="cls-12" cx="279.1" cy="47.84" rx="2.79" ry="2.01" transform="translate(189.73 316.54) rotate(-81.33)"/><ellipse class="cls-12" cx="279.1" cy="47.84" rx="3.34" ry="2.41" transform="translate(189.73 316.54) rotate(-81.33)"/><polyline class="cls-12" points="279.1 47.84 268.46 52.48 279.1 47.84 289.75 43.2 279.1 47.84 281.46 61.98 279.1 47.84 276.75 33.7 279.1 47.84 279.72 52.52 279.1 47.84 278.49 43.16 279.1 47.84 282.61 46.53 279.1 47.84 275.6 49.14 279.1 47.84 271.27 54.24 279.1 47.84 286.94 41.43 279.1 47.84 283.04 57.95 279.1 47.84 275.17 37.72 279.1 47.84 277.56 60.7 279.1 47.84 280.65 34.97 279.1 47.84 288.43 48.68 279.1 47.84 269.78 47 279.1 47.84 277.07 53.21 279.1 47.84 281.14 42.47 279.1 47.84 282.86 50.1 279.1 47.84 275.35 45.58 279.1 47.84 272.22 53.34 279.1 47.84 285.99 42.33 279.1 47.84 282.48 56.73 279.1 47.84 275.73 38.94 279.1 47.84 278.91 58.31 279.1 47.84 279.3 37.37 279.1 47.84 286.8 47.06 279.1 47.84 271.41 48.61 279.1 47.84 277.57 55.18 279.1 47.84 280.64 40.5 279.1 47.84 284.36 49.22 279.1 47.84 273.85 46.46 279.1 47.84 277.74 48.74 279.1 47.84 280.47 46.93 279.1 47.84 279.63 49.62 279.1 47.84 278.57 46.06 279.1 47.84 274.14 51.64 279.1 47.84 284.07 44.04 279.1 47.84 281.41 54.27 279.1 47.84 276.8 41.41 279.1 47.84 278.79 57.37 279.1 47.84 279.42 38.31 279.1 47.84 286.09 47.32 279.1 47.84 272.12 48.36 279.1 47.84 273.64 62.99 279.1 47.84 284.57 32.69 279.1 47.84 289.72 53.83 279.1 47.84 268.49 41.85 279.1 47.84 278.83 54.02 279.1 47.84 279.38 41.66 279.1 47.84 283.63 47.61 279.1 47.84 274.58 48.07 279.1 47.84 278.06 55.13 279.1 47.84 280.15 40.54 279.1 47.84 284.37 48.55 279.1 47.84 273.83 47.13 279.1 47.84 278.17 51.77 279.1 47.84 280.04 43.9 279.1 47.84 281.91 48.73 279.1 47.84 276.3 46.94"/><ellipse class="cls-13" cx="279.1" cy="47.84" rx="6.69" ry="4.82" transform="translate(189.73 316.54) rotate(-81.33)"/><ellipse class="cls-14" cx="279.1" cy="47.84" rx="3.34" ry="2.41" transform="translate(189.73 316.54) rotate(-81.33)"/><ellipse class="cls-15" cx="279.1" cy="47.84" rx="2.79" ry="2.01" transform="translate(189.73 316.54) rotate(-81.33)"/><polyline class="cls-16" points="279.1 47.84 268.46 52.48 279.1 47.84 289.75 43.2 279.1 47.84 281.46 61.98 279.1 47.84 276.75 33.7 279.1 47.84 279.72 52.52 279.1 47.84 278.49 43.16 279.1 47.84 282.61 46.53 279.1 47.84 275.6 49.14 279.1 47.84 271.27 54.24 279.1 47.84 286.94 41.43 279.1 47.84 283.04 57.95 279.1 47.84 275.17 37.72 279.1 47.84 277.56 60.7 279.1 47.84 280.65 34.97 279.1 47.84 288.43 48.68 279.1 47.84 269.78 47 279.1 47.84 277.07 53.21 279.1 47.84 281.14 42.47 279.1 47.84 282.86 50.1 279.1 47.84 275.35 45.58 279.1 47.84 272.22 53.34 279.1 47.84 285.99 42.33 279.1 47.84 282.48 56.73 279.1 47.84 275.73 38.94 279.1 47.84 278.91 58.31 279.1 47.84 279.3 37.37 279.1 47.84 286.8 47.06 279.1 47.84 271.41 48.61 279.1 47.84 277.57 55.18 279.1 47.84 280.64 40.5 279.1 47.84 284.36 49.22 279.1 47.84 273.85 46.46 279.1 47.84 277.74 48.74 279.1 47.84 280.47 46.93 279.1 47.84 279.63 49.62 279.1 47.84 278.57 46.06 279.1 47.84 274.14 51.64 279.1 47.84 284.07 44.04 279.1 47.84 281.41 54.27 279.1 47.84 276.8 41.41 279.1 47.84 278.79 57.37 279.1 47.84 279.42 38.31 279.1 47.84 286.09 47.32 279.1 47.84 272.12 48.36 279.1 47.84 273.64 62.99 279.1 47.84 284.57 32.69 279.1 47.84 289.72 53.83 279.1 47.84 268.49 41.85 279.1 47.84 278.83 54.02 279.1 47.84 279.38 41.66 279.1 47.84 283.63 47.61 279.1 47.84 274.58 48.07 279.1 47.84 278.06 55.13 279.1 47.84 280.15 40.54 279.1 47.84 284.37 48.55 279.1 47.84 273.83 47.13 279.1 47.84 278.17 51.77 279.1 47.84 280.04 43.9 279.1 47.84 281.91 48.73 279.1 47.84 276.3 46.94"/></g><circle class="cls-17" cx="265.57" cy="280.48" r="4.12"/><path class="cls-18" d="M136.45,109.27a9.61,9.61,0,0,0,3.52,5.16l-5.34.55c-.14,0-.42.23-.42.32.1,2.57,3.45,3.7,6,4.55,9.61,3.2,15.35,12.8,23.21,19.19a40.45,40.45,0,0,0,41,5.48l-.08.25c-8.25,25.3-32.61,42.66-41.62,67.71-3.87,10.77-4.67,22.35-5.73,33.74-.7,7.46-2.76,16.49-9.95,18.61-2.06.61-4.34.53-6.24,1.54s-3.08,3.87-1.46,5.28a4.2,4.2,0,0,0,1.93.8,23.31,23.31,0,0,0,20.87-6.13c9-8.94,9.09-23.24,13.53-35.14a48.57,48.57,0,0,1,35.43-30.08c8.49-1.67,18.27-.58,24.14,5.77,3.67,4,5.27,9.39,6.76,14.59l16.45,57.65c1.56,5.45,2.68,12.38-1.79,15.87-2.18,1.7-5.67,2.68-5.8,5.44-.14,3.13,4.28,4.17,7.3,3.34A18.89,18.89,0,0,0,270,293.87c2.68-5.57,2.43-12.06,2-18.23q-1.37-18.81-4.51-37.44c-2.1-12.48-4.76-25.53-.76-37.54,3.1-9.33,9.88-16.88,15.86-24.69a175.9,175.9,0,0,0,29.47-58.79c1.83-6.48,3.26-13.2,3-20a47.29,47.29,0,0,0-.47-5.94,13.74,13.74,0,0,0-2-5.74,6.16,6.16,0,0,0-5.22-2.62,7.57,7.57,0,0,0-2.87.63c-2.51,1.1-4.39,3.25-6.1,5.39a134.53,134.53,0,0,0-15.7,24.58c-3,6.07-5.69,12.56-10.67,17.16s-13.16,6.63-18.53,2.5c-4.25-3.26-5.4-9.1-6-14.42a197.36,197.36,0,0,1-1.35-25.59c0-3.44.16-7-1-10.23s-3.84-6.22-7.27-6.53c-5.07-.46-8.74,4.59-11.1,9.11a190.27,190.27,0,0,0-12,28.27c-3,8.93-5.75,18.81-13.47,24.18-6.49,4.51-15.25,4.69-22.74,2.18s-13.94-7.38-20-12.49c-6.43-5.45-13-12.35-12.89-20.74,0-.07,0,.41,0,.35s-.17-.54-.25-.53a3.24,3.24,0,0,0-2.46,4.4,15.8,15.8,0,0,0-5.87-2.51"/><path class="cls-19" d="M307.21,98.29c-.94-1.37-2.63-2.08-5.37-1.48a8.79,8.79,0,0,0-5,3.26c-1.86,2.4-2.47,6-.59,8.43a7.12,7.12,0,0,0,5.58,2.38,5.89,5.89,0,0,0,3.09-.7,6.44,6.44,0,0,0,2.56-3.8C308.37,103.54,308.55,100.24,307.21,98.29Z"/><path class="cls-19" d="M235.28,102.18a7,7,0,0,0,3.48-1.33A6.33,6.33,0,0,0,241,96c0-2.69-1.08-6.63-4.32-6.73a9.13,9.13,0,0,0-3.23.68c-1.53.53-3.15,1.16-4,2.51a6.65,6.65,0,0,0-.9,3.11,7,7,0,0,0,.69,4.41c1.2,1.92,3.79,2.5,6,2.22Z"/><path class="cls-20" d="M288.91,161.64c-.61.54-1.18,1.16-1.74,1.76-5.93,6.35-13.13,11.92-21.58,14a16.47,16.47,0,0,1-9.07,0,25.61,25.61,0,0,1-6.26-3.64,88.63,88.63,0,0,0-26.9-12.61,42.94,42.94,0,0,1-8.23-2.73,10.94,10.94,0,0,1-5.74-6.2c-.29-1-1-2.28-1.86-1.8-.57.31-.52,1.13-.39,1.76l.91,4.49a8.25,8.25,0,0,0-6.41-1.14,5.64,5.64,0,0,0,4.21,5l-3.45.92a1.57,1.57,0,0,0-.93.5c-.55.78.59,1.66,1.52,1.88,3.44.81,7,.4,10.55.74,5.5.53,10.65,2.85,15.61,5.27q10.53,5.14,20.65,11.06c2.77,1.62,5.6,3.32,8.77,3.78,5.12.75,10.07-1.82,14.61-4.3l12.38-6.77a25.51,25.51,0,0,0,6.91-4.84c2.28-2.52,4.59-11.29-1.74-8.34A7.51,7.51,0,0,0,288.91,161.64Z"/><circle class="cls-10" cx="301.3" cy="104.24" r="2.06"/><circle class="cls-10" cx="233.33" cy="95.88" r="2.13"/><path class="cls-17" d="M185.76,176.36l.13-.09a4.83,4.83,0,0,1,1.46-.56,13,13,0,0,1,3.27-.57c4.92,0,4.94,7.05,2.48,10a9,9,0,0,1-3,2.19,18,18,0,0,1-6.68,1.73,6.1,6.1,0,0,1-3-.39,2.67,2.67,0,0,1-1.64-2.32,4.1,4.1,0,0,1,1-2.26l4.93-6.6A5.36,5.36,0,0,1,185.76,176.36Z"/><ellipse class="cls-17" cx="169.5" cy="216.97" rx="4.35" ry="3.33"/><circle class="cls-17" cx="168.02" cy="235.01" r="5.09"/><circle class="cls-17" cx="157.29" cy="261.84" r="3.98"/><circle class="cls-17" cx="246.33" cy="211.29" r="3.56"/><circle class="cls-17" cx="260.62" cy="234.12" r="5.07"/><circle class="cls-17" cx="259.97" cy="256.29" r="2.31"/><path class="cls-17" d="M223.3,190.57a6.59,6.59,0,0,1,1.52,4.53,2.4,2.4,0,0,1-.36,1.29,2.58,2.58,0,0,1-1.12.82,6,6,0,0,1-5.61-.26,4.55,4.55,0,0,1-2-5.06,4.32,4.32,0,0,1,3.4-2.79A4.4,4.4,0,0,1,223.3,190.57Z"/><polygon class="cls-21" points="243.97 149.9 239.3 156.11 164.26 123.22 196.7 89.25 241.94 147.29 243.97 149.9"/><path class="cls-22" d="M198.28,90.36c1,3.19-4.63,10.85-6.18,12.86a82.65,82.65,0,0,1-13.49,14.27c-4,3.24-9.07,6.13-14.46,5.75-.9-5,.51-10.28,3.26-14.82A44.31,44.31,0,0,1,178.6,96.6c4.32-3.31,11.5-8.17,17.63-7.63A2.08,2.08,0,0,1,198.28,90.36Z"/><path class="cls-19" d="M248.2,147.21a8.94,8.94,0,0,1,1.94,7.05,9.72,9.72,0,0,1-4.13,6.09,7.16,7.16,0,0,1-6,1.21,3,3,0,0,1-2.1-1.86,4,4,0,0,1,0-1.73,52.39,52.39,0,0,1,3.24-11.45,2.65,2.65,0,0,1,.68-1.09,2.18,2.18,0,0,1,1.09-.41A5.71,5.71,0,0,1,248.2,147.21Z"/><path class="cls-18" d="M145.8,107.41s.19-.89-.46-.67"/><path class="cls-18" d="M137.33,108.61s-1.23-.34-.86.74"/><text class="cls-23" transform="translate(68.99 103.1)">看簡歷請點我</text><path class="cls-24" d="M179,72.82a27.53,27.53,0,0,1,1.72,2.49c.52.85,1,1.71,1.49,2.58.94,1.74,1.76,3.53,2.51,5.35l.56,1.34-1.38.58a63.51,63.51,0,0,1-7.12,2.55l.26-2c.8.73,1.56,1.5,2.32,2.28a29.43,29.43,0,0,1,2.15,2.51,29.43,29.43,0,0,1-3-1.33c-1-.51-1.93-1-2.85-1.57l-1.68-1,1.94-1a63.51,63.51,0,0,1,6.88-3.13L182,84.34c-.69-1.84-1.31-3.71-1.82-5.62-.26-1-.47-1.93-.68-2.9A27.53,27.53,0,0,1,179,72.82Z"/><path class="cls-25" d="M145.42,112a27.49,27.49,0,0,1,2.61-1.53c.89-.45,1.78-.9,2.69-1.29,1.81-.81,3.65-1.49,5.52-2.11l1.38-.46.48,1.42a63.52,63.52,0,0,1,2,7.28l-2-.41c.78-.74,1.61-1.45,2.44-2.15a29.45,29.45,0,0,1,2.66-2,29.44,29.44,0,0,1-1.55,2.92c-.57.92-1.15,1.85-1.77,2.73l-1.13,1.6-.89-2a63.51,63.51,0,0,1-2.61-7.1l1.86,1c-1.89.55-3.8,1-5.74,1.4-1,.19-2,.33-2.95.46A27.56,27.56,0,0,1,145.42,112Z"/><path class="cls-26" d="M137.61,77.39a24.64,24.64,0,0,1,2.64-1c.88-.31,1.77-.57,2.67-.81a53.31,53.31,0,0,1,5.4-1.13l1.73-.28,0,1.81a55.93,55.93,0,0,1-.77,8.26l-1.43-1c.85-.19,1.7-.36,2.57-.48a23.26,23.26,0,0,1,2.64-.28,23.22,23.22,0,0,1-2.21,1.48c-.75.47-1.51.88-2.28,1.28l-1.28.67-.15-1.72a56,56,0,0,1-.07-8.29l1.69,1.53a53.28,53.28,0,0,1-5.51.38c-.92,0-1.85,0-2.79-.05A24.67,24.67,0,0,1,137.61,77.39Z"/></g></g></g></svg>